{"title":"Robsons.Extreme.Fishing.Challenge.S02E02.PDTV.x264-W33D.mp4","uid":8219591,"size":355157567,"categoryP":"video","categoryS":"tv_shows","magnet":"?xt=urn:btih:4167e453cc16fa075add2624a2ddbd486f5e23cb&amp;dn=Robsons.Extreme.Fishing.Challenge.S02E02.PDTV.x264-W33D.mp4&amp;tr=udp%3A%2F%2Ftracker.openbittorrent.com%3A80&amp;tr=udp%3A%2F%2Fopen.demonii.com%3A1337&amp;tr=udp%3A%2F%2Ftracker.coppersurfer.tk%3A6969&amp;tr=udp%3A%2F%2Fexodus.desync.com%3A6969","seeders":1,"leechers":3,"uploader":"shane1989","files":1,"time":1362441191,"description":"Season 2 Episode 2 of 8\n\nMozambique Actor Robson Green journeys to Mozambique to take on some of the African country's best anglers, including Duarte Rato, who has an international reputation for catching huge fish in the tropical waters of the Bazaruto Archipelago. He also challenges a champion fly fisherman who has seven world records to his name, before going up against a professional skipper to land a tigerfish - but the last time Robson tried to hook one, it took him two days. Will luck be on his side this time?\n\n\n\n\nGeneral\nComplete name                            : Robsons.Extreme.Fishing.Challenge.S02E02.PDTV.x264-W33D.mp4\nFormat                                   : MPEG-4\nFormat profile                           : Base Media\nCodec ID                                 : isom\nFile size                                : 339 MiB\nDuration                                 : 45mn 6s\nOverall bit rate mode                    : Variable\nOverall bit rate                         : 1 050 Kbps\nWriting application                      : Lavf52.64.2\n\nVideo\nID                                       : 1\nFormat                                   : AVC\nFormat/Info                              : Advanced Video Codec\nFormat profile                           : &lt;a class=&quot;__cf_email__&quot; href=&quot;/cdn-cgi/l/email-protection&quot; data-cfemail=&quot;dd95b4bab59d91eef3ec&quot;&gt;[email&amp;#160;protected]&lt;/a&gt;&lt;script cf-hash='f9e31' type=&quot;text/javascript&quot;&gt;\n/* &lt;![CDATA[ */!function(){try{var t=&quot;currentScript&quot;in document?document.currentScript:function(){for(var t=document.getElementsByTagName(&quot;script&quot;),e=t.length;e--;)if(t[e].getAttribute(&quot;cf-hash&quot;))return t[e]}();if(t&amp;&amp;t.previousSibling){var e,r,n,i,c=t.previousSibling,a=c.getAttribute(&quot;data-cfemail&quot;);if(a){for(e=&quot;&quot;,r=parseInt(a.substr(0,2),16),n=2;a.length-n;n+=2)i=parseInt(a.substr(n,2),16)^r,e+=String.fromCharCode(i);e=document.createTextNode(e),c.parentNode.replaceChild(e,c)}}}catch(u){}}();/* ]]&gt; */&lt;/script&gt;\nFormat settings, CABAC                   : Yes\nFormat settings, ReFrames                : 4 frames\nCodec ID                                 : avc1\nCodec ID/Info                            : Advanced Video Coding\nDuration                                 : 45mn 6s\nBit rate                                 : 982 Kbps\nWidth                                    : 688 pixels\nHeight                                   : 384 pixels\nDisplay aspect ratio                     : 16:9\nFrame rate mode                          : Constant\nFrame rate                               : 25.000 fps\nColor space                              : YUV\nChroma subsampling                       : 4:2:0\nBit depth                                : 8 bits\nScan type                                : Progressive\nBits/(Pixel*Frame)                       : 0.149\nStream size                              : 317 MiB (94%)\n\nAudio\nID                                       : 2\nFormat                                   : AAC\nFormat/Info                              : Advanced Audio Codec\nFormat profile                           : LC\nCodec ID                                 : 40\nDuration                                 : 45mn 6s\nDuration_LastFrame                       : -21ms\nBit rate mode                            : Variable\nBit rate                                 : 61.4 Kbps\nChannel(s)                               : 2 channels\nChannel positions                        : Front: L R\nSampling rate                            : 48.0 KHz\nCompression mode                         : Lossy\nDelay relative to video                  : 200ms\nStream size                              : 19.8 MiB (6%)","torrent":{"xt":"urn:btih:4167e453cc16fa075add2624a2ddbd486f5e23cb","amp;dn":"Robsons.Extreme.Fishing.Challenge.S02E02.PDTV.x264-W33D.mp4","amp;tr":["udp%3A%2F%2Ftracker.openbittorrent.com%3A80","udp%3A%2F%2Fopen.demonii.com%3A1337","udp%3A%2F%2Ftracker.coppersurfer.tk%3A6969","udp%3A%2F%2Fexodus.desync.com%3A6969"],"infoHash":"4167e453cc16fa075add2624a2ddbd486f5e23cb","infoHashBuffer":{"type":"Buffer","data":[65,103,228,83,204,22,250,7,90,221,38,36,162,221,189,72,111,94,35,203]},"announce":[],"urlList":[]}}